# xmcd CD database file
#
# Track frame offsets:
#	150
#	52257
#	99107
#	120482
#	142045
#	201372
#	239385
#	281942
#
# Disc length: 4323 seconds
#
# Revision: 0
# Processed by: cddbd v1.5.1PL0 Copyright (c) Steve Scherf et al.
# Submitted via: CDex 1.51
#
DISCID=7a10e108
DTITLE=Carl Fontana and Steve Huffsteter - Live At The Royal Palms Inn
DYEAR=1993
DGENRE=Jazz
TTITLE0=A Night In Tunisia
TTITLE1=Star Eyes
TTITLE2=In Love In Vain
TTITLE3=But Beautiful
TTITLE4=Bye Bye Blackbird
TTITLE5=How Deep Is The Ocean
TTITLE6=People Will Say We're In Love
TTITLE7=I'll Remember April
EXTD=YEAR: 1993
EXTT0=
EXTT1=
EXTT2=
EXTT3=
EXTT4=
EXTT5=
EXTT6=
EXTT7=
PLAYORDER=
